Coordinates
version=1
nRows=26
nColumns=22
inDegrees=yes

Units are S.I. units (second, meters, Newtons, ...)
If the header above contains a line with 'inDegrees', this indicates whether rotational values are in degrees (yes) or radians (no).

endheader
time	pelvis_tilt	pelvis_list	pelvis_rotation	pelvis_tx	pelvis_ty	pelvis_tz	hip_flexion_r	hip_adduction_r	hip_rotation_r	knee_angle_r	ankle_angle_r	subtalar_angle_r	hip_flexion_l	hip_adduction_l	hip_rotation_l	knee_angle_l	ankle_angle_l	subtalar_angle_l	lumbar_extension	lumbar_bending	lumbar_rotation
      1.27000000	     -2.89059754	     -3.65787254	      0.99664447	     -1.16418106	      0.95136071	     -0.04319783	     11.96002833	      2.98077217	     -1.34730432	    -26.02143819	     14.07538338	      0.41554025	     10.90040866	     -2.80162688	     -5.30908657	    -25.38712282	     15.98137717	     -5.48303922	     -6.74526132	      2.44934004	     -0.02594161
      1.28000000	     -2.85192990	     -3.51797580	      0.99959821	     -1.16300361	      0.95119839	     -0.04488477	     12.76296221	      2.72482126	     -1.30585377	    -27.63180972	     13.92384754	      0.58702530	     10.67505861	     -2.54833627	     -5.39186815	    -25.22368628	     16.01643321	     -5.47158978	     -6.88430238	      2.31825462	     -0.18510070
      1.29000000	     -2.83370792	     -3.40805880	      0.99836274	     -1.16181404	      0.95101671	     -0.04651897	     13.68576589	      2.49500257	     -1.32669147	    -29.39799599	     13.66855406	      0.83321467	     10.48157635	     -2.33994761	     -5.51168277	    -25.07405076	     16.07606683	     -5.44060929	     -7.00453137	      2.21793846	     -0.35528494
      1.30000000	     -2.77715807	     -3.28940090	      0.99142344	     -1.16058715	      0.95092238	     -0.04809621	     14.64748654	      2.25828831	     -1.37502158	    -31.28467592	     13.32200847	      0.99737531	     10.22996026	     -2.12408696	     -5.63015771	    -24.89874902	     16.11870890	     -5.38799103	     -7.17676191	      2.10671924	     -0.53436702
      1.31000000	     -2.70263792	     -3.16811303	      0.97031127	     -1.15934061	      0.95087918	     -0.04961611	     15.66500713	      2.01921560	     -1.44957881	    -33.27100965	     12.88336996	      1.11328441	      9.95123442	     -1.90371115	     -5.73126953	    -24.71456814	     16.13512533	     -5.32788338	     -7.37949097	      1.99316776	     -0.70849696
      1.32000000	     -2.68314712	     -3.08739773	      0.95185523	     -1.15807746	      0.95074454	     -0.05106093	     16.80430910	      1.81302239	     -1.60382357	    -35.31678250	     12.38666188	      1.30735807	      9.75641416	     -1.74292022	     -5.88113198	    -24.57169782	     16.19337430	     -5.27161285	     -7.52204136	      1.92496852	     -0.90168094
      1.33000000	     -2.59813901	     -2.99660123	      0.92617011	     -1.15671567	      0.95076189	     -0.05242823	     17.88748778	      1.60480692	     -1.76244992	    -37.33218550	     11.83381640	      1.41859319	      9.45154134	     -1.56178506	     -5.96853995	    -24.37353012	     16.20522780	     -5.21292305	     -7.74254243	      1.84086344	     -1.08840751
      1.34000000	     -2.53733154	     -2.93309256	      0.90360153	     -1.15525564	      0.95075192	     -0.05371847	     18.99751315	      1.42028525	     -1.98042336	    -39.27279791	     11.30534543	      1.54197988	      9.17470723	     -1.42029139	     -6.08168614	    -24.18742724	     16.24058963	     -5.15906456	     -7.92927372	      1.78816322	     -1.30047178
      1.35000000	     -2.45871458	     -2.89960593	      0.89021260	     -1.15365555	      0.95080216	     -0.05493826	     20.05196260	      1.26673143	     -2.24695521	    -41.05697501	     10.83424965	      1.64999440	      8.86446737	     -1.31565673	     -6.18946836	    -23.98952869	     16.28518236	     -5.10647472	     -8.12659537	      1.76883755	     -1.53461720
      1.36000000	     -2.36247350	     -2.89660864	      0.88182810	     -1.15189200	      0.95092599	     -0.05608708	     21.02912872	      1.14905557	     -2.55566152	    -42.62896034	     10.45123494	      1.72540524	      8.51014796	     -1.24559069	     -6.28515090	    -23.76380621	     16.33631998	     -5.05412011	     -8.33196065	      1.78443352	     -1.79332856
      1.37000000	     -2.26798508	     -2.92522657	      0.88561223	     -1.14998153	      0.95109259	     -0.05717111	     21.93795353	      1.07069502	     -2.90384852	    -43.94839329	     10.19717115	      1.77554591	      8.14156227	     -1.21459199	     -6.37819677	    -23.52278329	     16.39275790	     -4.99751810	     -8.52415172	      1.83742581	     -2.08518967
      1.38000000	     -2.13835267	     -2.99802514	      0.88328092	     -1.14791807	      0.95135897	     -0.05814781	     22.72717866	      1.05484506	     -3.28393028	    -44.97715811	     10.03747758	      1.78028163	      7.72108752	     -1.24176031	     -6.48579170	    -23.27745519	     16.47085156	     -4.96726434	     -8.74851040	      1.93606832	     -2.38935494
      1.39000000	     -2.04589991	     -3.08095722	      0.89042450	     -1.14571358	      0.95161308	     -0.05907449	     23.48062330	      1.04933075	     -3.72083599	    -45.72392139	     10.00378618	      1.76760410	      7.31496124	     -1.27683827	     -6.56998649	    -22.99754879	     16.52377980	     -4.91901311	     -8.91863657	      2.04368714	     -2.70156614
      1.40000000	     -1.96970342	     -3.18567590	      0.89993185	     -1.14337525	      0.95187754	     -0.05993723	     24.17021101	      1.07271727	     -4.19949560	    -46.17500828	     10.04851602	      1.73511387	      6.91189865	     -1.33679927	     -6.63693524	    -22.70707872	     16.57566796	     -4.86354012	     -9.06259676	      2.17440084	     -3.02774722
      1.41000000	     -1.89975318	     -3.31225630	      0.91222306	     -1.14089843	      0.95215828	     -0.06073178	     24.78231857	      1.12496480	     -4.72094928	    -46.33263334	     10.13522490	      1.68037750	      6.50236884	     -1.42275810	     -6.69146536	    -22.40754689	     16.62921939	     -4.80148642	     -9.19321183	      2.32603330	     -3.35898378
      1.42000000	     -1.83346979	     -3.45454858	      0.91463143	     -1.13828305	      0.95244807	     -0.06144725	     25.31892074	      1.20643977	     -5.26296270	    -46.21325893	     10.23280022	      1.60974709	      6.08291664	     -1.52935081	     -6.74866898	    -22.10055384	     16.68195494	     -4.73693092	     -9.31556170	      2.49095015	     -3.67561693
      1.43000000	     -1.77259444	     -3.60121759	      0.90308824	     -1.13553142	      0.95272093	     -0.06208241	     25.78996756	      1.30558779	     -5.81396809	    -45.84474072	     10.31822112	      1.53441803	      5.65816864	     -1.64471680	     -6.81194675	    -21.79231917	     16.73770915	     -4.67100924	     -9.42733886	      2.65559125	     -3.97410828
      1.44000000	     -1.72306418	     -3.74227549	      0.87495566	     -1.13265770	      0.95295161	     -0.06265114	     26.20820467	      1.41349624	     -6.36329199	    -45.25144001	     10.37698481	      1.46960352	      5.24170506	     -1.75631134	     -6.88610532	    -21.49470870	     16.79918334	     -4.60573211	     -9.52439461	      2.81081737	     -4.25132611
      1.45000000	     -1.68068616	     -3.88040934	      0.83654445	     -1.12966389	      0.95312146	     -0.06314080	     26.57904234	      1.53335840	     -6.91245652	    -44.47057924	     10.39735304	      1.42197945	      4.83453096	     -1.86918717	     -6.96274697	    -21.21574367	     16.86925262	     -4.53764316	     -9.61134667	      2.95700561	     -4.51409209
      1.46000000	     -1.65111248	     -4.00456340	      0.78231065	     -1.12655711	      0.95320858	     -0.06356481	     26.91257435	      1.65737284	     -7.44367179	    -43.52420672	     10.36636488	      1.39632630	      4.44473747	     -1.96955965	     -7.04782392	    -20.96041925	     16.95224848	     -4.46789834	     -9.68187457	      3.08350920	     -4.76009512
      1.47000000	     -1.60684493	     -4.11761167	      0.72444890	     -1.12331931	      0.95324379	     -0.06394052	     27.17592570	      1.78885832	     -7.95907504	    -42.42946870	     10.27922999	      1.37510664	      4.04360744	     -2.05971570	     -7.12738530	    -20.73110717	     17.08104946	     -4.37006471	     -9.76762901	      3.19915913	     -5.01597040
      1.48000000	     -1.60070190	     -4.23044579	      0.65058759	     -1.11996492	      0.95313972	     -0.06421871	     27.43712789	      1.93697633	     -8.48062165	    -41.21749699	     10.13982958	      1.38951678	      3.70084985	     -2.15806164	     -7.21996189	    -20.55028983	     17.16684807	     -4.29366642	     -9.80654565	      3.30482582	     -5.21850421
      1.49000000	     -1.58212028	     -4.33050122	      0.57349867	     -1.11647456	      0.95296514	     -0.06445892	     27.63641454	      2.08973580	     -8.99096045	    -39.89844300	      9.95995986	      1.41356120	      3.34642843	     -2.24302800	     -7.30548759	    -20.39206162	     17.30634891	     -4.20916324	     -9.85800324	      3.40061278	     -5.42869939
      1.50000000	     -1.56314029	     -4.41792890	      0.48871871	     -1.11284286	      0.95270362	     -0.06461898	     27.78963552	      2.25112197	     -9.49399922	    -38.48957141	      9.76572136	      1.44599790	      2.99146282	     -2.31980772	     -7.39789324	    -20.25476639	     17.45930434	     -4.11373035	     -9.90656317	      3.47717752	     -5.63045381
      1.51000000	     -1.53606257	     -4.49693414	      0.40409201	     -1.10907422	      0.95236780	     -0.06471788	     27.88656856	      2.42311584	     -9.99973518	    -36.99923086	      9.57600735	      1.48641223	      2.63015903	     -2.39138118	     -7.48928711	    -20.14146388	     17.63905787	     -4.00691801	     -9.96237119	      3.54411007	     -5.82592200
      1.52000000	     -1.47120280	     -4.54333914	      0.31876704	     -1.10515678	      0.95200142	     -0.06476353	     27.90288348	      2.57846476	    -10.50524251	    -35.45444548	      9.42676174	      1.53067390	      2.21300482	     -2.43124747	     -7.59936475	    -20.02087658	     17.87605877	     -3.82900606	    -10.05856747	      3.57339310	     -6.03414351
